<mxfile host="app.diagrams.net" modified="2023-10-24T07:20:23.678Z" agent="Mozilla/5.0 (X11; Linux x86_64; rv:109.0) Gecko/20100101 Firefox/114.0" version="22.0.6" etag="7Ev3hZYvvbfdHj1B9Yd6" type="github">
  <diagram name="第 1 页" id="D_mUPnxu-tknNo9gNXzz">
    <mxGraphModel>
      <root>
        <mxCell id="0" />
        <mxCell id="1" parent="0" />
      </root>
    </mxGraphModel>
  </diagram>
</mxfile>
